# xmcd
#
# Track frame offsets:
#	150
#	15985
#	31953
#	50409
#	70721
#	87918
#	106821
#	124286
#	139527
#	158586
#	177620
#	197042
#	213611
#	231391
#	248958
#	268374
#	289168
#	311279
#	332421
#	345478
#
# Disc length: 4769 seconds
#
# Revision: 2
# Processed by: cddbd v1.5.2PL0 Copyright (c) Steve Scherf et al.
# Submitted via: audiograbber 1.83.01
#
DISCID=20129f14
DTITLE=Latino Salsa - [CD 2-3] - Merengue ~ Bachata - Maxi 3CD
DYEAR=2011
DGENRE=Salsa
TTITLE0=01 - Franky Vargas - No Serarar
TTITLE1=02 - Julio Angel - Me Engano Maria
TTITLE2=03 - Romeo Y Julieta - Dos Locos
TTITLE3=04 - Dominican Joe - Chica De Mi Barrio
TTITLE4=05 - Alexandra Reyes - Amor Loco Amor
TTITLE5=06 - Julio Angel - Maldita Tu
TTITLE6=07 - El Destino - Amor Nocivo
TTITLE7=08 - Frankie Rey - Princesa
TTITLE8=09 - Igor - Loca Conmigo
TTITLE9=10 - Juventud Libre - Los Infieles
TTITLE10=11 - Kelvin - Tengo Un Amor
TTITLE11=12 - Entre Amigos - No Te Vaya
TTITLE12=13 - Miguel Rivera - Si Tu Estuvieras
TTITLE13=14 - Los Evitos - Que Levanten La Mano
TTITLE14=15 - Evory - Azul
TTITLE15=16 - Patricio - Mal Acostumbrado
TTITLE16=17 - Tony's Band - Nau Nau Nau
TTITLE17=18 - Euly - Como Olvidar
TTITLE18=19 - Luis Kalaff - La Mecha
TTITLE19=20 - Los Alegres Dominicanos - Las Cacatas
EXTD=YEAR: 2011
EXTT0=
EXTT1=
EXTT2=
EXTT3=
EXTT4=
EXTT5=
EXTT6=
EXTT7=
EXTT8=
EXTT9=
EXTT10=
EXTT11=
EXTT12=
EXTT13=
EXTT14=
EXTT15=
EXTT16=
EXTT17=
EXTT18=
EXTT19=
PLAYORDER=
